<svg xmlns="http://www.w3.org/2000/svg" width="64" height="64" viewBox="0 0 64 64">
  <defs>
    <style>
      .cls-1 {
        fill: #cead6d;
        fill-rule: evenodd;
      }
    </style>
  </defs>
  <path id="形状_317_1" data-name="形状 317 1" class="cls-1" d="M16.619,30.261a20.427,20.427,0,0,1,4.221.411v-5.46a9.086,9.086,0,0,0-.248-3.038h7.2a1.711,1.711,0,0,0,.5.041l1.283,0.205v0.041l0.5,0.082v0.041h0.124v0.041h0.124v0.041h0.124v0.041h0.124v0.041l0.248,0.041V22.83H30.9v0.041H31.02v0.041l0.248,0.082v0.041h0.083v0.041h0.083v0.041h0.083v0.041l0.248,0.082,0.041,0.082h0.083L31.93,23.4h0.083v0.041l0.124,0.041,0.041,0.082h0.083l0.124,0.164h0.083L32.8,24.1l0.372,0.328v0.082L33.3,24.6v0.082L33.42,24.76v0.082L33.5,24.883l0.041,0.164,0.083,0.041,0.041,0.164H33.71L33.792,25.5h0.041v0.123a5.331,5.331,0,0,1,.331,3.325l-0.041.328-0.414.985-0.083.041-0.041.164-0.083.041-0.041.164-0.083.041v0.082l-0.124.082v0.082l-0.124.082v0.082l-0.166.123v0.082l-0.372.328v0.082H32.551l-0.083.123H32.385l-0.372.411-0.124.041-0.083.123H31.723L31.6,32.6H31.516l-0.041.082H31.392l-0.083.123H31.227l-0.041.082-0.124.041v0.041l-0.165.041-0.041.082H30.772l-0.041.082-0.166.041v0.041H30.482V33.3H30.4V33.34H30.316v0.041a0.292,0.292,0,0,1-.165.041,1.4,1.4,0,0,0-.455-0.328l-0.041-.082-0.124-.041V32.93H29.447l-0.041-.082H29.323l-0.041-.082-0.166-.041-0.041-.082H28.992l-0.041-.082a0.817,0.817,0,0,0-.29-0.123c0.051-.167.025-0.053,0.124-0.123l0.041-.082h0.083V32.191h0.083l0.041-.082h0.083l0.041-.082H29.24l0.083-.123h0.083l0.207-.246,0.414-.369V31.205l0.124-.082V31.041L30.234,31V30.918l0.083-.041,0.041-.164,0.083-.041,0.041-.164h0.041l0.041-.164h0.041V30.22h0.041V30.138h0.041l0.041-.246a3.315,3.315,0,0,0,.248-1.108,2.822,2.822,0,0,0,0-.821V27.469H30.937V27.182H30.9V26.977H30.854V26.812H30.813V26.689H30.772V26.566H30.73V26.443H30.689V26.32H30.647l-0.041-.164H30.565V26.032l-0.083-.041L30.4,25.745,30.316,25.7V25.622l-0.083-.041V25.5l-0.124-.082V25.335l-0.372-.328L29.572,24.8H29.489l-0.083-.123H29.323L29.282,24.6H29.2l-0.041-.082H29.075V24.472H28.992V24.431H28.909V24.39H28.827V24.349H28.744V24.308H28.661V24.267L28.5,24.226V24.185L27.461,23.9l-0.7-.041a3.8,3.8,0,0,0-.828-0.041H24.358v7.842L24.482,31.7v0.041l0.207,0.041v0.041h0.124v0.041H24.9V31.9H25.02v0.041H25.1v0.041h0.124v0.041l0.166,0.041v0.041h0.124V32.15H25.6v0.041l0.248,0.082v0.041h0.124v0.041h0.083V32.4h0.083v0.041H26.22v0.041H26.3v0.041h0.083V32.56h0.083V32.6h0.083v0.041h0.083v0.041h0.083v0.041H26.8v0.041h0.083l0.041,0.082h0.083v0.041h0.083V32.93h0.083v0.041h0.083v0.041h0.083l0.041,0.082,0.248,0.082,0.041,0.082L27.834,33.3l0.041,0.082,0.166,0.041L28.082,33.5l0.165,0.041v0.041l0.124,0.041,0.041,0.082H28.5l0.041,0.082H28.62l0.041,0.082h0.083l0.041,0.082h0.083l0.041,0.082h0.083v0.041l0.124,0.041L29.158,34.2H29.24l0.083,0.123h0.083l0.083,0.123h0.083l0.083,0.123h0.083L29.82,34.7H29.9L30.068,34.9h0.083l0.165,0.205A10.764,10.764,0,0,1,31.6,36.3a12.405,12.405,0,0,1,1.366,1.478l0.083,0.041,0.083,0.123h0.041v0.082l0.207,0.164v0.082l0.207,0.164v0.082l0.166,0.123v0.082l0.166,0.123v0.082l0.124,0.082v0.082l0.166,0.123v0.082l0.124,0.082v0.082l0.124,0.082v0.082L34.579,39.7v0.082L34.7,39.868l0.041,0.123,0.083,0.041v0.082l0.083,0.041v0.082l0.124,0.082V40.4l0.083,0.041v0.082l0.124,0.082v0.082h0.041l0.041,0.123,0.083,0.041v0.082l0.124,0.082V41.1l0.083,0.041,0.041,0.123H35.7v0.082l0.083,0.041v0.082l0.083,0.041v0.082l0.083,0.041v0.082l0.083,0.041v0.082L36.11,41.88v0.082L36.192,42v0.082l0.083,0.041v0.082h0.041l0.041,0.123,0.083,0.041v0.082h0.041l0.041,0.123,0.083,0.041V42.7l0.124,0.082v0.082l0.083,0.041v0.082l0.124,0.082v0.082l0.124,0.082v0.082L37.186,43.4l0.207,0.287H32.923a4.694,4.694,0,0,0-.621-1.642V41.962H32.261V41.88H32.22V41.8H32.179V41.716H32.137V41.633H32.1V41.551H32.054V41.469l-0.083-.041V41.346H31.93V41.264H31.889V41.182H31.847V41.1H31.806V41.018l-0.083-.041-0.083-.246-0.083-.041-0.083-.246L31.392,40.4l-0.041-.164L31.268,40.2l-0.041-.164-0.083-.041V39.909l-0.083-.041V39.786l-0.083-.041-0.041-.164-0.083-.041V39.457H30.813l-0.041-.123-0.083-.041V39.211l-0.083-.041V39.088l-0.124-.082V38.924L30.4,38.883V38.8l-0.124-.082V38.636L30.192,38.6V38.513l-0.083-.041-0.041-.123L29.9,38.226V38.144l-0.124-.082V37.979l-0.166-.123V37.774l-0.207-.164V37.528L29.2,37.364V37.282l-0.331-.287-0.041-.123-0.579-.534-0.455-.493H27.709l-0.331-.37H27.3L27.13,35.27H27.047l-0.166-.205H26.8l-0.083-.123H26.634l-0.124-.164-0.124-.041-0.041-.082H26.261l-0.041-.082H26.137l-0.083-.123H25.971l-0.041-.082-0.124-.041V34.285H25.723L25.682,34.2H25.6l-0.041-.082H25.475l-0.041-.082H25.351l-0.041-.082-0.166-.041L25.1,33.833l-0.745-.411V42.29a1.461,1.461,0,0,1,.041.452H24.44v0.287h0.041v0.246a3.931,3.931,0,0,1,.124.411H20.592c0.038-.193.109-0.464,0.166-0.657V42.742H20.8v-0.41H20.84V31.985a0.073,0.073,0,0,1-.041-0.041l-1.572-.369-0.538-.041a8.478,8.478,0,0,0-2.069-.164V42.29h0.041v0.37H16.7v0.246h0.041v0.246c0.05,0.159.13,0.357,0.165,0.534H12.73V43.645h0.041l0.083-.493H12.9V42.906a8.588,8.588,0,0,0,.083-2.053H12.937a1.464,1.464,0,0,1-.455.411l-0.248.287H12.15l-0.248.287H11.819l-0.207.246H11.53l-0.041.082H11.447l-0.083.123H11.281l-0.041.082-0.124.041-0.124.164H10.909l-0.041.082H10.785l-0.083.123H10.619l-0.041.082-0.124.041v0.041l-0.165.041-0.041.082-0.165.041-0.041.082-0.165.041v0.041H9.792v0.041L9.543,43.4V43.44H9.419v0.041H9.336v0.041l-0.248.041V43.6H8.964v0.041H8.84v0.041l-0.29.041v0.041H8.343v0.041L7.93,43.85v0.041l-0.745.041a4.614,4.614,0,0,1-1.655-.041H5.24V43.85H5.033V43.809H4.867V43.768H4.7V43.727H4.536V43.686H4.412V43.645H4.247V43.6H4.164V43.563l-0.248-.041V43.481L3.709,43.44V43.4l-0.166-.041V43.317H3.419V43.276H3.336V43.235H3.254l-0.041-.082L2.964,43.07V43.029L2.84,42.988,2.8,42.906H2.716l-0.041-.082H2.591L2.509,42.7H2.426L2.3,42.537H2.219l-0.331-.37-0.124-.041V42.044l-0.455-.41V41.551l-0.166-.123V41.346L1.06,41.3V41.223l-0.124-.082-0.041-.164-0.083-.041-0.041-.123H0.729l-0.041-.164H0.647V40.566H0.605L0.522,40.32H0.481V40.2H0.44V40.114H0.4V39.991H0.357V39.909H0.316l-0.041-.287H0.233V39.5H0.191V39.334H0.15V39.17H0.109V38.924H0.067V38.636H0.026a5.2,5.2,0,0,1,.041-1.273V37.076l0.29-1.026H0.4V35.968H0.44V35.845H0.481L0.564,35.6H0.605V35.516H0.647l0.083-.246,0.083-.041,0.041-.164,0.083-.041V34.941H0.978l0.041-.123L1.1,34.777V34.7l0.083-.041,0.041-.123,0.124-.082V34.367L1.6,34.161V34.079l0.248-.205,0.372-.41H2.3l0.207-.246H2.591l0.124-.164H2.8l0.083-.123H2.964l0.083-.123H3.129l0.041-.082H3.254l0.041-.082H3.378l0.041-.082H3.5l0.041-.082H3.626V32.437H3.709l0.041-.082L4,32.273l0.041-.082H4.123V32.15H4.205V32.109H4.288V32.068H4.371V32.026H4.454V31.985H4.536V31.944l0.248-.082V31.821H4.909V31.78H4.992V31.739L5.2,31.7V31.657l0.248-.041V31.575H5.529V31.534H5.654V31.493H5.778V31.452H5.9V31.411H6.026a21.553,21.553,0,0,1,7.035-1.191V27.634a5.8,5.8,0,0,0-.041-1.314L12.978,25.5H12.937V25.335H12.9V25.17H12.854V25.047H12.812V24.924H12.771V24.8H12.73l-0.083-.246H12.606l-0.041-.164-0.083-.041V24.267l-0.124-.082V24.1l-0.165-.123-0.207-.246H11.9l-0.083-.123-0.165-.041-0.041-.082-0.165-.041V23.4L11.2,23.323V23.282H11.074V23.241H10.95V23.2H10.826V23.159H10.7V23.118l-0.414-.041a5.765,5.765,0,0,0-1.531-.123H8.136v0.041l-0.662.041v0.041H7.267v0.041H7.061v0.041H6.9V23.2H6.771v0.041l-0.29.041v0.041H6.4v0.041H6.274V23.4l-0.248.082v0.041H5.943v0.041l-0.166.041-0.041.082H5.654l-0.041.082H5.529l-0.248.287-0.166.123-0.041.164-0.083.041v0.082H4.95V24.6H4.909V24.76a1.739,1.739,0,0,0,.29,1.273L5.24,26.2l0.083,0.041V26.32H5.364V26.4H5.405v0.082H5.447v0.082H5.488v0.082H5.529V26.73H5.571l0.083,0.246H5.695l0.083,0.369H5.819V27.51H5.861v0.328a0.073,0.073,0,0,1,.041.082H5.861v0.287H5.819v0.164H5.778v0.082H5.736v0.123H5.695V28.66H5.654v0.082l-0.083.041v0.082l-0.124.082v0.082L5.2,29.235l-0.041.082H5.074l-0.083.123H4.909l-0.041.082L4.7,29.563l-0.041.082-0.207.041v0.041H4.371v0.041H4.247a1.637,1.637,0,0,1-1.076.041l-0.29-.041V29.727l-0.166-.041V29.645H2.633l-0.041-.082H2.509l-0.041-.082H2.385L2.3,29.358l-0.248-.205V29.071l-0.124-.082-0.041-.164-0.083-.041-0.041-.205H1.722V28.5H1.681L1.64,28.249H1.6l-0.041-.37H1.516l-0.041-.657H1.516V26.771H1.557V26.566H1.6V26.361H1.64V26.238H1.681V26.073H1.722V25.991H1.764l0.041-.246H1.847L1.929,25.5H1.971V25.417H2.012l0.041-.164,0.083-.041V25.129H2.178l0.041-.123L2.3,24.965V24.883L2.426,24.8V24.719L2.591,24.6V24.513l0.166-.123,0.331-.369H3.171l0.166-.205H3.419L3.5,23.692H3.585l0.083-.123H3.75l0.041-.082,0.124-.041V23.4l0.166-.041,0.041-.082L4.371,23.2l0.041-.082,0.166-.041V23.035l0.166-.041V22.953H4.867V22.912H4.95V22.871l0.166-.041V22.789l0.207-.041V22.707l0.248-.041V22.625H5.695V22.584H5.819V22.543H5.943V22.5H6.067V22.461H6.192V22.42H6.357V22.379H6.523V22.337H6.688V22.3H6.854V22.255l0.662-.082V22.132h0.29V22.091H8.178V22.05H8.716V22.009H9.13a4.872,4.872,0,0,1,1.076.041l0.786,0.041v0.041H11.24v0.041h0.207v0.041h0.207v0.041h0.165V22.3h0.165v0.041l0.29,0.041V22.42H12.4v0.041h0.124V22.5h0.124v0.041H12.73v0.041h0.124v0.041l0.165,0.041v0.041h0.124v0.041l0.165,0.041V22.83l0.166,0.041,0.041,0.082,0.165,0.041,0.041,0.082,0.165,0.041L13.93,23.2h0.083L14.1,23.323h0.083l0.083,0.123h0.083l0.207,0.246h0.083l0.207,0.246,0.083,0.041v0.082l0.248,0.205v0.082L15.3,24.431l0.041,0.123L15.419,24.6v0.082L15.5,24.719V24.8l0.083,0.041,0.041,0.164,0.083,0.041,0.041,0.164h0.041v0.082h0.041l0.083,0.246h0.041v0.123H16v0.082H16.04v0.123h0.041V25.95h0.041v0.123h0.041V26.2h0.041V26.32h0.041v0.123h0.041v0.164H16.33v0.164h0.041v0.164h0.041v0.205h0.041v0.205H16.5L16.537,28h0.041v0.7A6.944,6.944,0,0,1,16.619,30.261ZM38.3,22.173h4.014c-0.037.194-.109,0.464-0.166,0.657q-0.021.369-.041,0.739H42.068v9.155H42.11a1.9,1.9,0,0,1,.331-0.411l0.124-.082V32.15l0.414-.369V31.7l0.372-.328V31.288l0.414-.37V30.836l0.372-.328V30.425L44.51,30.1l0.041-.123,0.372-.329V29.563l0.414-.369V29.112l0.372-.328V28.7l0.414-.37c0.356-.487.8-0.867,1.159-1.355l0.372-.329,0.041-.123,0.372-.328V26.115l0.373-.328,0.041-.123,0.372-.328V25.252l0.414-.37V24.8l0.372-.328V24.39l0.414-.369V23.939l0.372-.329V23.528l0.414-.369V23.076l0.29-.246V22.748l0.083-.041V22.625l0.083-.041V22.5a1.071,1.071,0,0,0,.166-0.328h2.9v0.041H54.317l-0.828.78v0.082l-0.414.37v0.082l-0.414.37V23.98l-0.414.369v0.082l-0.372.328v0.082l-0.414.37v0.082l-0.331.287v0.041l-0.083.041v0.082l-0.414.369V26.2l-0.331.287v0.041l-0.083.041v0.082l-0.414.37V27.1l-0.414.37v0.082l-0.331.287V27.88l-0.083.041V28l-0.414.369v0.082l-0.414.37v0.082l-0.414.369v0.082l-0.083.041V29.44l-0.331.287V29.81H47.282l-0.124.164-0.248.205v0.082H46.869l-0.124.164-0.207.164v0.123h0.041v0.082l0.083,0.041v0.082H46.7V31l0.083,0.041v0.082h0.041l0.041,0.123,0.083,0.041V31.37l0.083,0.041,0.041,0.123h0.041L47.158,31.7l0.083,0.041v0.082l0.083,0.041v0.082l0.083,0.041v0.082l0.083,0.041,0.041,0.164,0.083,0.041V32.4h0.041L47.7,32.519l0.083,0.041v0.082l0.083,0.041L47.9,32.807h0.041l0.041,0.164,0.083,0.041v0.082H48.11l0.041,0.123,0.083,0.041V33.34l0.083,0.041L48.358,33.5H48.4l0.041,0.164h0.041l0.041,0.123,0.083,0.041v0.082l0.083,0.041,0.041,0.123h0.041l0.041,0.164L48.9,34.285v0.082h0.041l0.041,0.123,0.083,0.041v0.082l0.083,0.041,0.041,0.123h0.041l0.041,0.164,0.083,0.041v0.082h0.041l0.041,0.123,0.083,0.041v0.082L49.6,35.352l0.041,0.123h0.041l0.041,0.164,0.083,0.041v0.082h0.041l0.041,0.123,0.083,0.041v0.082l0.083,0.041L50.1,36.173h0.041l0.041,0.164,0.083,0.041V36.46L50.345,36.5v0.082l0.083,0.041v0.082l0.083,0.041,0.041,0.164,0.083,0.041v0.082h0.041l0.041,0.123L50.8,37.2v0.082l0.083,0.041,0.041,0.123h0.041l0.041,0.164,0.083,0.041v0.082h0.041l0.041,0.123L51.255,37.9v0.082l0.083,0.041,0.041,0.123H51.42l0.041,0.164,0.083,0.041v0.082l0.083,0.041v0.082L51.71,38.6v0.082l0.083,0.041,0.041,0.164,0.083,0.041v0.082h0.041L52,39.129l0.083,0.041v0.082l0.083,0.041,0.041,0.123h0.041l0.041,0.164,0.083,0.041V39.7h0.041l0.041,0.123,0.083,0.041V39.95l0.083,0.041,0.041,0.123H52.7l0.041,0.164,0.083,0.041V40.4l0.083,0.041v0.082l0.083,0.041v0.082l0.083,0.041,0.041,0.123h0.041L53.2,40.977l0.083,0.041V41.1l0.083,0.041v0.082l0.083,0.041v0.082l0.083,0.041,0.041,0.164,0.083,0.041v0.082l0.083,0.041V41.8l0.083,0.041v0.082L53.9,41.962l0.041,0.123h0.041l0.041,0.164h0.041l0.041,0.123,0.083,0.041V42.5h0.041l0.041,0.123,0.083,0.041v0.082l0.124,0.082v0.082l0.29,0.246,0.041,0.123,0.124,0.041v0.041a1.036,1.036,0,0,0,.372.287v0.041H51.172a1.37,1.37,0,0,0-.248-0.78V42.824l-0.083-.041V42.7l-0.083-.041V42.578l-0.083-.041-0.041-.164-0.083-.041V42.249l-0.083-.041V42.126l-0.083-.041V42L50.3,41.962,50.262,41.8l-0.083-.041V41.674L50.1,41.633V41.551l-0.083-.041V41.428l-0.083-.041-0.041-.164-0.083-.041V41.1l-0.083-.041V40.977l-0.083-.041V40.853l-0.083-.041-0.041-.164-0.083-.041V40.525l-0.083-.041V40.4l-0.083-.041V40.279l-0.083-.041-0.041-.164-0.083-.041V39.95l-0.083-.041V39.827L48.9,39.786V39.7l-0.083-.041L48.772,39.5l-0.083-.041V39.375l-0.083-.041V39.252l-0.083-.041V39.129l-0.083-.041L48.4,38.924l-0.083-.041V38.8l-0.083-.041V38.677l-0.083-.041V38.554l-0.083-.041-0.041-.164-0.083-.041V38.226l-0.083-.041V38.1l-0.083-.041V37.979L47.7,37.938l-0.041-.164-0.083-.041V37.651l-0.083-.041V37.528l-0.083-.041V37.4l-0.083-.041L47.282,37.2,47.2,37.158V37.076l-0.083-.041V36.953l-0.083-.041V36.83l-0.083-.041-0.041-.164-0.083-.041V36.5l-0.083-.041V36.378l-0.083-.041V36.255l-0.083-.041-0.041-.164-0.083-.041V35.927l-0.083-.041V35.8l-0.083-.041V35.68l-0.083-.041-0.041-.164-0.083-.041V35.352L46,35.311V35.229l-0.083-.041V35.106l-0.083-.041L45.793,34.9l-0.083-.041V34.777l-0.083-.041V34.654l-0.083-.041V34.531l-0.083-.041-0.041-.164-0.083-.041V34.2l-0.083-.041V34.079l-0.083-.041V33.956l-0.083-.041-0.041-.164-0.083-.041V33.628l-0.083-.041V33.5L44.8,33.463V33.381l-0.083-.041-0.041-.164-0.083-.041V33.053H44.551L44.51,32.93H44.427a2.364,2.364,0,0,1-.414.493l-0.124.082v0.082l-0.414.37v0.082l-0.331.287-0.083.123H43.02v0.082l-0.414.37v0.082l-0.455.411v0.082l-0.083.041v6.815a1.3,1.3,0,0,1,.041.41h0.041v0.287h0.041v0.246l0.124,0.411H38.3l0.166-.739v-0.37H38.51V42.085h0.041V23.815H38.51V23.282H38.468v-0.37Zm20.856,0a4.679,4.679,0,0,1,1.241.082h0.207V22.3h0.166v0.041H60.9v0.041h0.165V22.42h0.083v0.041h0.124V22.5h0.083v0.041l0.372,0.123,0.041,0.082,0.165,0.041V22.83l0.124,0.041L62.1,22.953h0.083l0.083,0.123h0.083l0.124,0.164h0.083L62.8,23.528l0.083,0.041v0.082l0.207,0.164V23.9l0.124,0.082v0.082L63.3,24.1v0.082l0.083,0.041,0.083,0.246H63.5v0.082h0.041L63.628,24.8h0.041v0.123H63.71v0.082h0.041v0.123h0.041v0.164h0.041v0.123h0.041v0.205h0.041L63.959,26.2H64V26.73H63.959v0.411H63.917v0.205H63.876V27.51H63.835v0.164H63.793V27.8H63.752v0.123H63.71v0.123H63.669v0.082H63.628v0.123H63.586L63.5,28.5H63.462l-0.041.164-0.083.041v0.082l-0.083.041v0.082l-0.083.041v0.082l-0.124.082v0.082l-0.372.328-0.29.328H62.3l-0.083.123H62.138l-0.083.123-0.166.041-0.041.082-0.166.041V30.3H61.6v0.041l-0.248.082v0.041H61.228v0.041H61.145v0.041l-0.29.041v0.041H60.731v0.041H60.565v0.041H60.317v0.041H59.986v0.041h-0.7V30.754H58.952V30.713H58.745V30.672H58.538V30.631H58.414V30.59H58.29V30.549H58.165V30.507H58.041V30.466H57.959V30.425H57.834V30.384l-0.166-.041V30.3L57.5,30.261l-0.041-.082L57.3,30.138l-0.041-.082H57.172l-0.083-.123H57.007l-0.124-.164H56.8l-0.165-.205L56.3,29.276V29.194l-0.165-.123V28.988l-0.083-.041V28.865l-0.083-.041V28.742L55.889,28.7l-0.083-.246H55.765V28.373H55.724l-0.083-.246H55.6V28H55.558V27.88H55.517V27.757H55.476V27.634H55.434V27.469a3.15,3.15,0,0,1-.083-1.519V25.663h0.041l0.041-.328h0.041V25.211h0.041V25.088h0.041V24.965H55.6V24.842h0.041l0.041-.164h0.041V24.554h0.041V24.472l0.083-.041,0.083-.246,0.083-.041V24.062l0.124-.082V23.9l0.124-.082V23.733l0.248-.205,0.372-.41h0.083l0.083-.123,0.124-.041,0.041-.082,0.166-.041,0.041-.082,0.248-.082V22.625h0.083V22.584L58,22.5V22.461h0.124V22.42h0.124V22.379h0.124V22.337H58.5V22.3h0.166V22.255A1.79,1.79,0,0,0,59.159,22.173Zm0.993,0.7V22.748a3.5,3.5,0,0,0-1.076.041H58.827a3.791,3.791,0,0,0-2.152,1.4l-0.124.082v0.082l-0.083.041v0.082l-0.083.041V24.6H56.345v0.082H56.3V24.76H56.262v0.082H56.221v0.082H56.179l-0.041.164H56.1v0.123a3.167,3.167,0,0,0-.166,1.888v0.205h0.041l0.041,0.328h0.041v0.123H56.1v0.082h0.041v0.123h0.041l0.083,0.246H56.3l0.041,0.164,0.083,0.041V28.5h0.041l0.041,0.123,0.083,0.041v0.082l0.083,0.041L56.8,28.988h0.083l0.083-.123h0.083l0.124-.164h0.083l0.083-.123,0.166-.041,0.041-.082,0.166-.041,0.041-.082,0.662-.287V28l0.248-.082V27.88l0.165-.041V27.8h0.124V27.757l0.248-.082V27.634h0.083V27.593h0.083V27.551l0.248-.082,0.041-.082h0.083V27.346h0.083V27.305H59.9V27.264h0.083l0.041-.082,0.165-.041,0.041-.082,0.166-.041,0.041-.082h0.083l0.083-.123H60.69l0.041-.082h0.083l0.166-.205h0.083l0.29-.328,0.124-.082V26.032l0.166-.123,0.041-.123,0.083-.041,0.041-.164,0.083-.041a2.075,2.075,0,0,0,.248-1.4V23.98H62.1V23.9H62.055l-0.083-.246-0.124-.082-0.166-.205a1.924,1.924,0,0,0-1.49-.164l-0.331.041v0.041H59.738v0.041H59.655v0.041l-0.207.041-0.041.082-0.165.041L59.2,23.61H59.117l-0.083.123H58.952l-0.248.287-0.166.123v0.082l-0.124.082V24.39l-0.083.041v0.082l-0.083.041a1.453,1.453,0,0,0-.166,1.108,0.233,0.233,0,0,0,.207.205,0.723,0.723,0,0,0,.662,0h0.124V25.827h0.083V25.786h0.083V25.745h0.083V25.7h0.083V25.663H59.49l0.041-.082h0.083l0.041-.082h0.083l0.083-.123a2.807,2.807,0,0,0,.455-0.452l0.041-.164h0.041a0.493,0.493,0,0,0-.414-0.739v0.041c-0.058.034-.222,0.007-0.29,0.041v0.041H59.572v0.041H59.49l-0.041.082-0.166.041c-0.12.08-.018,0.132-0.248,0.164l-0.041-.082,0.248-.205V24.144a1.556,1.556,0,0,1,1.076-.287V23.9l0.207,0.041,0.207,0.246h0.041v0.082l0.083,0.041V24.39l0.083,0.041,0.041,0.205h0.041a2.125,2.125,0,0,1-.248.985l-0.083.041v0.082l-0.124.082v0.082l-0.124.082-0.29.329H60.069l-0.041.082-0.124.041v0.041H59.821l-0.041.082-0.166.041v0.041H59.531v0.041H59.407V26.73l-0.621.082V26.771H58.5V26.73a1.852,1.852,0,0,1-.331-0.082l-0.041-.082H58.041l-0.083-.123H57.917V26.361l-0.124-.082V26.2l-0.083-.041V26.073l-0.083-.041a1.665,1.665,0,0,1-.041-1.15h0.041V24.8h0.041l0.083-.246,0.083-.041V24.431l0.083-.041V24.308l0.124-.082V24.144l0.331-.287,0.165-.205h0.083l0.124-.164h0.083l0.041-.082,0.124-.041V23.323h0.083l0.041-.082,0.166-.041V23.159h0.083V23.118h0.083V23.076h0.083A1.425,1.425,0,0,1,60.152,22.871ZM58.7,30.138a2.323,2.323,0,0,1,.455.082h0.993V30.179H60.4V30.138h0.165V30.1h0.166V30.056h0.124V30.015h0.124V29.974h0.083V29.933h0.124V29.892l0.166-.041V29.81l0.166-.041,0.041-.082,0.166-.041,0.041-.082h0.083l0.083-.123A3.823,3.823,0,0,0,63.214,27.8l0.083-.411a3.455,3.455,0,0,0-.083-2.094V25.17H63.172V25.088H63.131V24.965H63.09V24.883H63.048V24.8H63.007V24.719H62.966V24.637H62.924a0.594,0.594,0,0,0-.207-0.287,0.072,0.072,0,0,0-.041-0.041v0.37a1.256,1.256,0,0,1,.041.575,2.52,2.52,0,0,1-.372,1.314l-0.083.041v0.082l-0.083.041v0.082l-0.124.082v0.082l-0.207.164v0.082l-0.372.328-0.331.369H61.062l-0.207.246H60.772l-0.166.205H60.524l-0.166.205H60.276l-0.124.164H60.069l-0.083.123H59.9l-0.166.205H59.655l-0.124.164A2.209,2.209,0,0,0,58.7,30.138ZM13.061,31.37a9.786,9.786,0,0,0-3.807.534l-0.248.041v0.041H8.923v0.041H8.8v0.041L8.55,32.15v0.041H8.467v0.041H8.385v0.041H8.3v0.041H8.219v0.041H8.136V32.4H8.054l-0.041.082-0.166.041V32.56L7.723,32.6l-0.041.082H7.6l-0.041.082H7.474l-0.041.082H7.35l-0.041.082H7.226l-0.041.082H7.143L7.1,33.094H7.019L6.9,33.258H6.812L6.4,33.71l-0.5.452v0.082l-0.166.123v0.082l-0.124.082v0.082L5.488,34.7v0.082l-0.083.041V34.9l-0.083.041-0.041.123H5.24L5.2,35.229l-0.083.041v0.082H5.074v0.082H5.033v0.082H4.992V35.6H4.95V35.68H4.909v0.082H4.867l-0.083.246H4.743v0.123H4.7v0.082H4.66v0.123H4.619v0.082H4.578l-0.083.41H4.454v0.123H4.412l-0.041.37H4.329v0.205H4.288v0.287H4.247v0.493H4.205v0.657H4.247v0.452H4.288V39.7H4.329v0.205H4.371v0.205a3.7,3.7,0,0,0,1.49,2.217L5.9,42.413a3.4,3.4,0,0,0,2.317.369H8.467l0.91-.287V42.455l0.248-.082V42.331H9.709V42.29l0.166-.041,0.041-.082,0.166-.041,0.041-.082L10.288,42l0.083-.123h0.083L10.5,41.8h0.083l0.083-.123,0.124-.041,0.207-.246h0.083l0.248-.287,0.124-.082V40.935L11.7,40.73V40.648l0.166-.123V40.443l0.083-.041V40.32l0.124-.082V40.155l0.083-.041,0.041-.164,0.083-.041V39.827h0.041V39.745h0.041V39.663H12.4V39.581l0.083-.041,0.041-.205h0.041V39.252h0.041l0.041-.164h0.041l0.041-.246h0.041V38.718h0.041V38.6h0.041V38.472H12.9l0.041-.369a8.562,8.562,0,0,0,.124-2.176V31.37Z"/>
</svg>
